<svg width="17" height="17" viewBox="0 0 17 17" fill="none" xmlns="http://www.w3.org/2000/svg">
<path d="M0 13.5H17M0 3.5H17M3.5 0V17M13.5 0V17" stroke="#444444"/>
<path d="M3.5 13.5H3V14H3.5V13.5ZM13.5 3.5H14V3H13.5V3.5ZM3.5 3.5V3H3V3.5H3.5ZM13.5 8.5L13.8536 8.85355L14 8.70711V8.5H13.5ZM8.5 13.5V14H8.70711L8.85355 13.8536L8.5 13.5ZM4 13.5V3.5H3V13.5H4ZM13 3.5V8.5H14V3.5H13ZM13.1464 8.14645L10.6464 10.6464L11.3536 11.3536L13.8536 8.85355L13.1464 8.14645ZM10.6464 10.6464L8.14645 13.1464L8.85355 13.8536L11.3536 11.3536L10.6464 10.6464ZM8.5 13H3.5V14H8.5V13ZM13.5 3H3.5V4H13.5V3Z" fill="#AAAAAA"/>
</svg>
