<svg width="21" height="22" viewBox="0 0 21 22" fill="none" xmlns="http://www.w3.org/2000/svg">
<path fill-rule="evenodd" clip-rule="evenodd" d="M13.0141 17.5221C12.5696 17.846 12.013 18.1149 11.3939 18.1694C10.7693 18.2243 10.0964 18.0593 9.43272 17.5404C8.84907 17.0841 8.50603 16.4138 8.22157 15.7878C8.08123 15.4789 7.95704 15.2094 7.85044 14.9805C7.57903 14.3978 7.39424 13.738 7.49456 13.0673C7.62578 12.19 7.98798 11.1268 8.93947 10.651C9.169 10.5363 9.42521 10.4235 9.68511 10.3091C9.80032 10.2583 9.91627 10.2073 10.0309 10.1556C10.4098 9.98489 10.7842 9.80335 11.1159 9.58926C11.7774 9.16222 12.2396 8.62673 12.2396 7.82075L12.2396 5.71621C12.2396 5.09283 12.4956 4.44302 13.0793 4.1142C13.7043 3.76204 14.5005 3.5079 15.3103 3.65114C16.1306 3.79624 16.9248 4.34189 17.5482 5.50911C17.7819 5.94661 17.8578 6.59861 17.8578 7.05503C17.8578 7.57429 17.7458 7.91465 17.5444 8.36779L14.2479 15.7849C13.9674 16.4161 13.6157 17.0837 13.0141 17.5221ZM9.6799 17.2242C10.2657 17.6822 10.8382 17.8154 11.3587 17.7696C11.8848 17.7234 12.3732 17.4926 12.7778 17.1978C13.287 16.8267 13.6035 16.2467 13.8812 15.622L17.1777 8.20481C17.3667 7.77947 17.4565 7.49712 17.4565 7.05503C17.4565 6.61931 17.3809 6.0476 17.1943 5.69817C16.6165 4.61639 15.9156 4.16575 15.2404 4.0463C14.5545 3.92498 13.8545 4.13802 13.2763 4.46382C12.8568 4.70017 12.6409 5.18821 12.6409 5.71621L12.6409 7.82075C12.6409 8.82062 12.0508 9.46337 11.3335 9.92642C10.9757 10.1574 10.579 10.3488 10.1958 10.5215C10.0733 10.5767 9.95306 10.6296 9.83573 10.6813C9.5807 10.7935 9.33946 10.8997 9.11894 11.01C8.35275 11.3931 8.0184 12.2779 7.89145 13.1267C7.80745 13.6882 7.95953 14.2643 8.21422 14.8111C8.32136 15.0411 8.44608 15.3118 8.58692 15.6218C8.87102 16.247 9.1808 16.834 9.6799 17.2242Z" fill="white"/>
<path fill-rule="evenodd" clip-rule="evenodd" d="M14.7768 19.8798C12.8428 21.5384 10.9871 22.0188 9.34282 21.8263C7.70613 21.6347 6.30653 20.7797 5.26816 19.817C4.1961 18.8231 3.60115 17.4628 3.10631 16.1398C2.56431 14.6907 1.75655 12.58 0.676235 9.9631C0.383459 9.2539 0.123116 8.50451 0.0450754 7.71723C-0.221187 5.03117 0.723839 3.17391 2.04313 1.9528C3.35417 0.739333 5.02433 0.162567 6.21346 0.00187276L6.22684 6.48436e-05L13.4943 6.42083e-05C14.4139 6.41279e-05 15.3667 0.0746691 16.2547 0.401512C18.4569 1.21208 19.7208 2.56505 20.3817 4.03209C21.0398 5.49296 21.0937 7.0524 20.9056 8.27816C20.7994 8.97038 20.5325 9.61766 20.2557 10.2309C19.8034 11.2331 18.9497 13.0875 17.4886 16.0588C16.8023 17.4545 15.9839 18.8446 14.7768 19.8798ZM5.54099 19.5227C6.53912 20.4481 7.86311 21.249 9.38948 21.4277C10.9083 21.6055 12.6551 21.1707 14.5155 19.5752C15.659 18.5946 16.4484 17.2649 17.1285 15.8818C18.5876 12.9144 19.4394 11.064 19.8899 10.0658C20.1652 9.45598 20.4117 8.8514 20.509 8.2173C20.6885 7.04694 20.6342 5.56979 20.0158 4.19691C19.4001 2.8302 18.2193 1.55226 16.1161 0.778111C15.294 0.475517 14.3968 0.401362 13.4943 0.401362L6.25394 0.401363C5.12872 0.556045 3.54877 1.10602 2.31572 2.24731C1.08607 3.38545 0.190896 5.12013 0.444416 7.67764C0.516585 8.40568 0.758881 9.11164 1.04717 9.80996C2.12963 12.432 2.93906 14.5471 3.48218 15.9992C3.97571 17.3187 4.54412 18.5985 5.54099 19.5227Z" fill="white"/>
<path fill-rule="evenodd" clip-rule="evenodd" d="M9.38948 21.4277C7.86311 21.249 6.53912 20.4481 5.54099 19.5227C4.54412 18.5985 3.97571 17.3187 3.48218 15.9992C2.93906 14.5471 2.12963 12.432 1.04717 9.80996C0.758881 9.11164 0.516585 8.40568 0.444416 7.67764C0.190896 5.12013 1.08607 3.38545 2.31572 2.24731C3.54877 1.10602 5.12872 0.556045 6.25394 0.401363L13.4943 0.401362C14.3968 0.401362 15.294 0.475517 16.1161 0.778111C18.2193 1.55226 19.4001 2.8302 20.0158 4.19691C20.6342 5.56979 20.6885 7.04694 20.509 8.2173C20.4117 8.8514 20.1652 9.45598 19.8899 10.0658C19.4394 11.064 18.5876 12.9144 17.1285 15.8818C16.4484 17.2649 15.659 18.5946 14.5155 19.5752C12.6551 21.1707 10.9083 21.6055 9.38948 21.4277ZM13.0141 17.5221C12.5696 17.846 12.013 18.1149 11.3939 18.1694C10.7693 18.2243 10.0964 18.0593 9.43272 17.5404C8.84907 17.0841 8.50603 16.4138 8.22157 15.7878C8.08123 15.4789 7.95704 15.2094 7.85044 14.9805C7.57903 14.3978 7.39424 13.738 7.49456 13.0673C7.62578 12.19 7.98798 11.1268 8.93947 10.651C9.169 10.5363 9.42521 10.4235 9.68511 10.3091C9.80032 10.2583 9.91627 10.2073 10.0309 10.1556C10.4098 9.98489 10.7842 9.80335 11.1159 9.58926C11.7774 9.16222 12.2396 8.62673 12.2396 7.82075L12.2396 5.71621C12.2396 5.09283 12.4956 4.44302 13.0793 4.1142C13.7043 3.76204 14.5005 3.5079 15.3103 3.65114C16.1306 3.79624 16.9248 4.34189 17.5482 5.50911C17.7819 5.94661 17.8578 6.59861 17.8578 7.05503C17.8578 7.57429 17.7458 7.91465 17.5444 8.36779L14.2479 15.7849C13.9674 16.4161 13.6157 17.0837 13.0141 17.5221Z" fill="white"/>
</svg>
